<svg width="98" height="96" xmlns="http://www.w3.org/2000/svg" xmlns:xlink="http://www.w3.org/1999/xlink" xml:space="preserve" overflow="hidden"><g transform="translate(-750 -196)"><g><g><g><g><path d="M799 246C800.091 245.999 801.179 245.891 802.248 245.675 801.634 245.182 801.122 244.574 800.742 243.885 792.767 244.874 785.501 239.212 784.511 231.237 783.522 223.263 789.185 215.996 797.159 215.006 805.134 214.017 812.4 219.68 813.39 227.654 813.681 230.003 813.395 232.387 812.557 234.6L814.908 233.816C817.286 225.025 812.087 215.97 803.296 213.592 794.505 211.214 785.45 216.413 783.072 225.204 780.694 233.995 785.893 243.05 794.684 245.428 796.091 245.809 797.542 246.001 799 246Z" fill="#000000" fill-rule="nonzero" fill-opacity="1"/><path d="M827.516 258.537C822.929 255.005 817.674 252.439 812.068 250.993 807.833 249.693 803.43 249.026 799 249.015 794.581 249.089 790.191 249.753 785.947 250.989 780.41 252.615 775.188 255.164 770.5 258.529 768.352 260.215 767.076 262.778 767.026 265.508L767.026 281 769.026 281 769.026 265.508C769.07 263.4 770.056 261.422 771.713 260.119 776.198 256.905 781.194 254.471 786.489 252.919 790.556 251.732 794.764 251.091 799 251.015 803.238 251.029 807.45 251.669 811.5 252.915 816.852 254.288 821.87 256.73 826.252 260.094 827.927 261.398 828.927 263.387 828.974 265.51L828.974 281 830.974 281 830.974 265.508C830.927 262.783 829.657 260.223 827.516 258.537Z" fill="#000000" fill-rule="nonzero" fill-opacity="1"/><path d="M784.714 216C792.44 208.113 805.097 207.982 812.984 215.708 815.282 217.959 817.002 220.73 818 223.788L818 235.946 808.355 239.161C807.334 237.862 805.454 237.637 804.155 238.658 802.856 239.678 802.631 241.559 803.652 242.857 804.672 244.156 806.553 244.382 807.852 243.361 808.56 242.804 808.98 241.957 808.994 241.056L821.231 236.977C822.788 236.857 823.993 235.562 824 234L824 226C824 224.343 822.657 223 821 223L819.833 223C815.98 211.489 803.525 205.281 792.014 209.134 788.713 210.239 785.721 212.113 783.286 214.6 782.894 214.989 782.891 215.622 783.28 216.014 783.669 216.406 784.302 216.409 784.694 216.02 784.701 216.014 784.707 216.007 784.714 216ZM822 226 822 234C822 234.552 821.552 235 821 235L820 235 820 225 821 225C821.552 225 822 225.448 822 226Z" fill="#000000" fill-rule="nonzero" fill-opacity="1"/></g></g></g></g></g></svg>