<svg width="97" height="96" xmlns="http://www.w3.org/2000/svg" xmlns:xlink="http://www.w3.org/1999/xlink" xml:space="preserve" overflow="hidden"><g transform="translate(-481 -104)"><g><g><g><g><path d="M565.29 115.436C562.117 110.731 555.731 109.489 551.026 112.662 549.931 113.4 548.989 114.342 548.251 115.436 546.334 118.265 545.929 121.855 547.168 125.039L551.846 135.381 555.884 143.851C556.135 144.34 556.735 144.534 557.225 144.283 557.411 144.188 557.562 144.036 557.657 143.851L561.695 135.381 566.373 125.039C567.612 121.855 567.207 118.265 565.29 115.436ZM564.526 124.27 559.89 134.52 556.78 141.044C556.775 141.054 556.767 141.054 556.762 141.044L553.668 134.557 549.015 124.27C548.034 121.706 548.368 118.824 549.911 116.552 552.467 112.764 557.611 111.765 561.399 114.322 562.284 114.918 563.044 115.68 563.639 116.566 565.175 118.835 565.506 121.711 564.526 124.27Z" fill="#000000" fill-rule="nonzero" fill-opacity="1"/><path d="M495.216 153.006C492.84 156.51 492.339 160.957 493.873 164.903L499.669 177.715 504.672 188.208C504.983 188.815 505.727 189.055 506.333 188.744 506.563 188.626 506.75 188.439 506.868 188.208L511.871 177.715 517.667 164.903C519.202 160.957 518.7 156.51 516.325 153.006 512.395 147.176 504.483 145.637 498.654 149.568 497.297 150.482 496.13 151.65 495.216 153.006ZM514.674 154.135C516.669 157.08 517.096 160.814 515.82 164.133L510.066 176.854 505.779 185.845C505.774 185.855 505.766 185.855 505.761 185.845L501.491 176.89 495.72 164.133C494.443 160.808 494.875 157.069 496.875 154.122 500.189 149.209 506.858 147.913 511.771 151.228 512.917 152.001 513.903 152.988 514.674 154.135Z" fill="#000000" fill-rule="nonzero" fill-opacity="1"/><path d="M525.863 186.888C526.853 186.877 527.86 186.86 528.878 186.836L528.83 184.836C527.821 184.86 526.822 184.877 525.839 184.888Z" fill="#000000" fill-rule="nonzero" fill-opacity="1"/><path d="M533.821 148.313 532.924 146.525C531.968 146.996 531.058 147.558 530.21 148.204L531.436 149.785C532.182 149.219 532.98 148.726 533.821 148.313Z" fill="#000000" fill-rule="nonzero" fill-opacity="1"/><path d="M529.625 151.701 527.937 150.63C527.303 151.611 526.932 152.739 526.859 153.905L528.855 154.025C528.906 153.197 529.171 152.396 529.625 151.701Z" fill="#000000" fill-rule="nonzero" fill-opacity="1"/><path d="M522.846 184.909 521.832 184.91 519.851 184.906 519.843 186.906 521.832 186.91 522.85 186.909 522.846 184.909Z" fill="#000000" fill-rule="nonzero" fill-opacity="1"/><path d="M541.65 162.409C540.67 162.163 539.7 161.918 538.757 161.662L538.234 163.593C539.19 163.851 540.171 164.1 541.163 164.349Z" fill="#000000" fill-rule="nonzero" fill-opacity="1"/><path d="M513.847 184.88 513.847 186.88C514.763 186.88 515.767 186.885 516.841 186.891L516.852 184.891C515.774 184.885 514.767 184.88 513.847 184.88Z" fill="#000000" fill-rule="nonzero" fill-opacity="1"/><path d="M529.628 159.926 530.881 158.367C530.209 157.854 529.666 157.193 529.292 156.434L527.482 157.286C527.987 158.318 528.721 159.221 529.628 159.926Z" fill="#000000" fill-rule="nonzero" fill-opacity="1"/><path d="M541.725 143.674 542.132 145.632C543.064 145.439 544.044 145.261 545.043 145.103L544.731 143.127C543.7 143.29 542.688 143.474 541.725 143.674Z" fill="#000000" fill-rule="nonzero" fill-opacity="1"/><path d="M547.757 142.717 547.982 144.705C549.715 144.508 550.852 144.445 550.9 144.443L550.792 142.445C550.667 142.452 549.517 142.517 547.757 142.717Z" fill="#000000" fill-rule="nonzero" fill-opacity="1"/><path d="M559.694 176.092C559.698 175.218 559.601 174.348 559.406 173.496L557.459 173.952C557.619 174.653 557.698 175.37 557.694 176.089 557.694 176.251 557.685 176.412 557.667 176.573L559.655 176.794C559.681 176.561 559.694 176.326 559.694 176.092Z" fill="#000000" fill-rule="nonzero" fill-opacity="1"/><path d="M549.444 182.588 549.967 184.518C550.968 184.251 551.955 183.932 552.922 183.561L552.198 181.696C551.296 182.042 550.377 182.339 549.444 182.588Z" fill="#000000" fill-rule="nonzero" fill-opacity="1"/><path d="M554.731 180.469 555.78 182.172C556.74 181.603 557.593 180.872 558.303 180.011L556.738 178.766C556.172 179.445 555.493 180.021 554.731 180.469Z" fill="#000000" fill-rule="nonzero" fill-opacity="1"/><path d="M550.417 164.962 549.699 166.829C550.597 167.168 551.472 167.563 552.32 168.012L553.264 166.249C552.343 165.761 551.392 165.331 550.417 164.962Z" fill="#000000" fill-rule="nonzero" fill-opacity="1"/><path d="M555.926 168.014 554.646 169.551C555.34 170.119 555.944 170.789 556.437 171.537L558.117 170.452C557.514 169.534 556.776 168.712 555.926 168.014Z" fill="#000000" fill-rule="nonzero" fill-opacity="1"/><path d="M543.676 183.745 543.966 185.724C545.019 185.569 546.031 185.397 546.975 185.211L546.588 183.248C545.676 183.428 544.696 183.595 543.676 183.745Z" fill="#000000" fill-rule="nonzero" fill-opacity="1"/><path d="M532.394 161.595C533.34 162.028 534.31 162.405 535.3 162.725L535.927 160.826C535.011 160.531 534.113 160.182 533.237 159.782Z" fill="#000000" fill-rule="nonzero" fill-opacity="1"/><path d="M534.914 186.597 534.798 184.6C533.806 184.657 532.81 184.704 531.817 184.743L531.896 186.741C532.9 186.702 533.909 186.655 534.914 186.597Z" fill="#000000" fill-rule="nonzero" fill-opacity="1"/><path d="M535.798 145.305 536.476 147.187C537.336 146.877 538.275 146.583 539.267 146.314L538.743 144.384C537.699 144.667 536.708 144.977 535.798 145.305Z" fill="#000000" fill-rule="nonzero" fill-opacity="1"/><path d="M537.933 186.391C538.951 186.309 539.959 186.215 540.951 186.107L540.734 184.118C539.761 184.225 538.771 184.317 537.773 184.397Z" fill="#000000" fill-rule="nonzero" fill-opacity="1"/><path d="M544.573 163.152 544.066 165.087C545.029 165.339 545.987 165.602 546.924 165.887L547.504 163.973C546.544 163.681 545.56 163.411 544.573 163.152Z" fill="#000000" fill-rule="nonzero" fill-opacity="1"/><path d="M556.77 116.815C554.322 116.815 552.338 118.8 552.338 121.247 552.338 123.695 554.323 125.679 556.77 125.679 559.218 125.679 561.202 123.695 561.202 121.247 561.212 118.81 559.245 116.826 556.807 116.815 556.795 116.815 556.782 116.815 556.77 116.815ZM556.77 123.679C555.427 123.679 554.338 122.59 554.338 121.247 554.338 119.904 555.427 118.815 556.77 118.815 558.113 118.815 559.202 119.904 559.202 121.247 559.216 122.576 558.151 123.665 556.822 123.679 556.805 123.68 556.787 123.68 556.77 123.679Z" fill="#000000" fill-rule="nonzero" fill-opacity="1"/><path d="M500.279 160.205C500.279 163.237 502.738 165.696 505.77 165.696 508.803 165.696 511.261 163.238 511.261 160.205 511.262 157.173 508.803 154.714 505.771 154.714 505.77 154.714 505.77 154.714 505.77 154.714 502.75 154.702 500.292 157.139 500.279 160.159 500.279 160.174 500.279 160.19 500.279 160.205ZM509.261 160.205C509.261 162.133 507.698 163.696 505.771 163.696 503.842 163.696 502.279 162.133 502.279 160.205 502.279 158.277 503.842 156.714 505.77 156.714 505.77 156.714 505.77 156.714 505.77 156.714 507.678 156.693 509.241 158.223 509.261 160.13 509.262 160.155 509.262 160.18 509.261 160.205Z" fill="#000000" fill-rule="nonzero" fill-opacity="1"/></g></g></g></g></g></svg>