<svg width="96" height="96" xmlns="http://www.w3.org/2000/svg" xmlns:xlink="http://www.w3.org/1999/xlink" xml:space="preserve" overflow="hidden"><g transform="translate(-656 -8)"><g><path d="M706.4 77.4 703.6 74.6 722.6 55.6 725.4 58.4 706.4 77.4ZM696.6 67.6 715.6 48.6 718.4 51.4 699.4 70.4 696.6 67.6ZM689.6 60.6 708.6 41.6 711.4 44.4 692.4 63.4 689.6 60.6ZM684 40C681.8 40 680 38.2 680 36 680 33.8 681.8 32 684 32 686.2 32 688 33.8 688 36 688 38.2 686.2 40 684 40ZM733.2 57.2 705.2 29.2C704.4 28.4 703.4 28 702.4 28L684 28C679.6 28 676 31.6 676 36L676 54.3C676 55.4 676.4 56.4 677.2 57.1L705.2 85.1C706.8 86.7 709.3 86.7 710.9 85.1L733.2 62.8C734.7 61.3 734.7 58.7 733.2 57.2Z" fill="#000000" fill-rule="nonzero" fill-opacity="1"/></g></g></svg>