<svg width="96" height="98" xmlns="http://www.w3.org/2000/svg" xmlns:xlink="http://www.w3.org/1999/xlink" xml:space="preserve" overflow="hidden"><g transform="translate(-368 -54)"><g><g><g><g><path d="M401 94C398.8 94 397 92.2 397 90 397 88.6 397.8 87.3 398.9 86.6 398.9 87.3 399 88.1 399 89 399 90.1 399.9 91 401 91 402.1 91 403 90.1 403 89 403 88.1 403 87.3 402.9 86.5 404.1 87.2 405 88.5 405 90 405 92.2 403.2 94 401 94ZM450.2 111.2 422.2 83.2C421.4 82.4 420.4 82 419.4 82L402.2 82C401.1 78.5 399 76.7 395.4 76 394.1 75.8 393 75.6 391.9 75.4 386.2 74.6 385 74.4 385 68 385 66.9 384.1 66 383 66 381.9 66 381 66.9 381 68 381 77.4 384.7 78.4 391.3 79.4 392.3 79.6 393.4 79.7 394.7 80 396 80.3 397.4 80.5 398.2 82.6 395.2 83.8 393.1 86.7 393.1 90.1L393.1 108.4C393.1 109.5 393.5 110.5 394.3 111.2L422.3 139.2C423 140 424 140.3 425 140.3 426 140.3 427 139.9 427.8 139.1L450.1 116.8C451.7 115.3 451.7 112.7 450.2 111.2Z" fill="#000000" fill-rule="nonzero" fill-opacity="1"/></g></g></g></g></g></svg>