<svg width="98" height="97" xmlns="http://www.w3.org/2000/svg" xmlns:xlink="http://www.w3.org/1999/xlink" xml:space="preserve" overflow="hidden"><g transform="translate(-894 -125)"><g><g><g><g><path d="M972 187.981 972.004 151.988 914.001 151.988 914.001 187.998ZM916.001 153.988 970.004 153.988 970 185.981 916.001 185.998Z" fill="#000000" fill-rule="nonzero" fill-opacity="1"/><path d="M911.001 150.987C911.002 149.883 911.897 148.988 913.001 148.987L973.004 148.987C974.108 148.988 975.003 149.883 975.004 150.987L975.004 192 977.004 192 977.004 150.987C977.002 148.778 975.212 146.989 973.004 146.987L913.001 146.987C910.793 146.989 909.003 148.778 909.001 150.987L909.001 192 911.001 192Z" fill="#000000" fill-rule="nonzero" fill-opacity="1"/><path d="M948.003 194.981 948.003 196.981 938.002 196.981 938.002 194.981 897 194.981 897 196.98C897.003 199.74 899.24 201.978 902 201.981L984.004 201.981C986.765 201.978 989.002 199.741 989.005 196.98L989.005 194.981ZM984.004 199.981 902 199.981C900.344 199.979 899.002 198.637 899 196.981L936.002 196.981C935.965 198.049 936.801 198.944 937.869 198.981 937.913 198.982 937.958 198.982 938.002 198.981L948.003 198.981C949.071 199.018 949.966 198.182 950.003 197.115 950.004 197.07 950.004 197.025 950.003 196.981L987.005 196.981C987.002 198.637 985.66 199.979 984.004 199.981Z" fill="#000000" fill-rule="nonzero" fill-opacity="1"/><path d="M943 157C935.82 157 930 162.82 930 170 930 177.18 935.82 183 943 183 950.18 183 956 177.18 956 170 955.992 162.824 950.176 157.008 943 157ZM953.949 169 950.431 169C950.293 165.416 948.8 162.019 946.255 159.492 950.504 160.817 953.539 164.568 953.949 169ZM942 160.226 942 169 937.574 169C937.828 165.229 939.503 161.94 942 160.226ZM942 171 942 179.775C939.506 178.058 937.83 174.758 937.575 171ZM944 179.774 944 171 948.425 171C948.17 174.754 946.493 178.056 944 179.774ZM944 169 944 160.227C946.492 161.945 948.17 165.246 948.425 169ZM939.727 159.498C937.186 162.023 935.7 165.42 935.569 169L932.051 169C932.46 164.575 935.487 160.828 939.727 159.498ZM932.051 171 935.569 171C935.706 174.583 937.197 177.981 939.742 180.507 935.494 179.18 932.461 175.431 932.051 171ZM946.256 180.508C948.801 177.981 950.293 174.583 950.431 171L953.949 171C953.539 175.432 950.505 179.182 946.256 180.508Z" fill="#000000" fill-rule="nonzero" fill-opacity="1"/></g></g></g></g></g></svg>